<svg width="40" height="40" viewBox="0 0 40 40" fill="none" xmlns="http://www.w3.org/2000/svg">
<path fill-rule="evenodd" clip-rule="evenodd" d="M37.9166 19.9998C37.9166 29.8949 29.8951 37.9165 20 37.9165C10.1049 37.9165 2.08329 29.8949 2.08329 19.9998C2.0833 10.1047 10.1049 2.08317 20 2.08317C29.8951 2.08317 37.9166 10.1047 37.9166 19.9998ZM11.6667 19.9999C11.6667 19.0794 12.4129 18.3332 13.3334 18.3332L20.8334 18.3332L20.8334 18.0632C20.8332 17.5792 20.8331 17.0671 20.8814 16.663C20.9167 16.3683 21.0497 15.2841 22.0646 14.7839C23.0803 14.2833 23.9848 14.8581 24.229 15.0142C24.5653 15.2291 24.9531 15.5508 25.3199 15.8552L25.3829 15.9074C25.9609 16.3865 26.6187 16.9571 27.142 17.5293C27.4034 17.815 27.6726 18.1455 27.8853 18.5043C28.0825 18.8369 28.3334 19.3623 28.3334 19.9999C28.3334 20.6376 28.0825 21.1629 27.8853 21.4955C27.6726 21.8543 27.4034 22.1848 27.142 22.4706C26.6187 23.0428 25.9609 23.6133 25.3829 24.0924L25.3199 24.1447L25.3199 24.1447C24.9531 24.449 24.5653 24.7707 24.229 24.9856C23.9848 25.1417 23.0803 25.7166 22.0646 25.2159C21.0497 24.7157 20.9167 23.6315 20.8814 23.3369C20.8331 22.9327 20.8332 22.4206 20.8334 21.9366L20.8334 21.6666L13.3334 21.6666C12.4129 21.6666 11.6667 20.9204 11.6667 19.9999Z" fill="#7F56D9"/>
</svg>
