<svg width="20" height="20" viewBox="0 0 20 20" fill="none" xmlns="http://www.w3.org/2000/svg">
<path fill-rule="evenodd" clip-rule="evenodd" d="M5.1516 8.61095C4.3368 8.61095 4.16675 8.77082 4.16675 9.53687V10.9258C4.16675 11.6918 4.3368 11.8517 5.1516 11.8517H7.12129V17.4072C7.12129 18.1733 7.29134 18.3332 8.10614 18.3332H10.0758C10.8906 18.3332 11.0607 18.1733 11.0607 17.4072V11.8517H13.2724C13.8903 11.8517 14.0496 11.7388 14.2193 11.1801L14.6414 9.79125C14.9322 8.8343 14.753 8.61095 13.6944 8.61095H11.0607V6.29613C11.0607 5.78476 11.5016 5.37021 12.0455 5.37021H14.8486C15.6634 5.37021 15.8334 5.21033 15.8334 4.44428V2.59243C15.8334 1.82638 15.6634 1.6665 14.8486 1.6665H12.0455C9.32595 1.6665 7.12129 3.73926 7.12129 6.29613V8.61095H5.1516Z" stroke="#667085" stroke-width="1.26" stroke-linejoin="round"/>
</svg>
