<svg width="56" height="56" viewBox="0 0 56 56" fill="none" xmlns="http://www.w3.org/2000/svg">
<rect x="4" y="4" width="48" height="48" rx="24" fill="#F4EBFF"/>
<rect x="4" y="4" width="48" height="48" rx="24" stroke="#F9F5FF" stroke-width="8"/>
<path d="M21.1429 30C20.4173 28.8082 20 27.4118 20 25.9189C20 21.5454 23.5817 18 28 18C32.4183 18 36 21.5454 36 25.9189C36 27.4118 35.5827 28.8082 34.8571 30" stroke="#7F56D9" stroke-width="1.5" stroke-linecap="round"/>
<path d="M30 26C29.3875 26.6432 28.7111 27 28 27C27.2889 27 26.6125 26.6432 26 26" stroke="#7F56D9" stroke-width="1.5" stroke-linecap="round"/>
<path d="M23.3829 33.0982C23.291 32.8216 23.2451 32.6833 23.2504 32.5713C23.2617 32.3343 23.4111 32.1262 23.6316 32.0405C23.7358 32 23.8811 32 24.1716 32H31.8284C32.119 32 32.2642 32 32.3684 32.0405C32.5889 32.1262 32.7383 32.3343 32.7496 32.5713C32.7549 32.6833 32.709 32.8216 32.6171 33.0982C32.4473 33.6094 32.3624 33.8651 32.2315 34.072C31.9572 34.5056 31.5272 34.8167 31.0306 34.9408C30.7935 35 30.525 35 29.9881 35H26.0119C25.475 35 25.2065 35 24.9694 34.9408C24.4728 34.8167 24.0428 34.5056 23.7685 34.072C23.6376 33.8651 23.5527 33.6094 23.3829 33.0982Z" stroke="#7F56D9" stroke-width="1.5"/>
<path d="M31 35L30.8707 35.6466C30.7293 36.3537 30.6586 36.7072 30.5001 36.9866C30.2552 37.4185 29.8582 37.7439 29.3866 37.8994C29.0816 38 28.7211 38 28 38C27.2789 38 26.9184 38 26.6134 37.8994C26.1418 37.7439 25.7448 37.4185 25.4999 36.9866C25.3414 36.7072 25.2707 36.3537 25.1293 35.6466L25 35" stroke="#7F56D9" stroke-width="1.5"/>
<path d="M28 31.5V27" stroke="#7F56D9" stroke-width="1.5" stroke-linecap="round" stroke-linejoin="round"/>
</svg>
