<svg width="20" height="20" viewBox="0 0 20 20" fill="none" xmlns="http://www.w3.org/2000/svg">
<path d="M2.08325 9.99967C2.08325 6.26772 2.08325 4.40175 3.24262 3.24238C4.40199 2.08301 6.26797 2.08301 9.99992 2.08301C13.7319 2.08301 15.5978 2.08301 16.7572 3.24238C17.9166 4.40175 17.9166 6.26772 17.9166 9.99967C17.9166 13.7316 17.9166 15.5976 16.7572 16.757C15.5978 17.9163 13.7319 17.9163 9.99992 17.9163C6.26797 17.9163 4.40199 17.9163 3.24262 16.757C2.08325 15.5976 2.08325 13.7316 2.08325 9.99967Z" stroke="#667085" stroke-width="1.26" stroke-linejoin="round"/>
<path d="M13.7499 10C13.7499 12.0711 12.0709 13.75 9.99988 13.75C7.92881 13.75 6.24988 12.0711 6.24988 10C6.24988 7.92893 7.92881 6.25 9.99988 6.25C12.0709 6.25 13.7499 7.92893 13.7499 10Z" stroke="#667085" stroke-width="1.26"/>
<path d="M14.5898 5.4165L14.5823 5.4165" stroke="#667085" stroke-width="1.68" stroke-linecap="round" stroke-linejoin="round"/>
</svg>
