<svg width="44" height="44" viewBox="0 0 44 44" fill="none" xmlns="http://www.w3.org/2000/svg">
<circle cx="22" cy="22" r="22" fill="#F9F5FF"/>
<rect width="24" height="24" transform="translate(10 10)" fill="#F9F5FF"/>
<path d="M19.1583 15.7122L18.7556 14.8063C18.4923 14.2139 18.3607 13.9177 18.1638 13.691C17.9171 13.4069 17.5955 13.1979 17.2357 13.0878C16.9486 13 16.6245 13 15.9762 13C15.0279 13 14.5538 13 14.1557 13.1823C13.6869 13.397 13.2634 13.8633 13.0947 14.3506C12.9515 14.7643 12.9925 15.1894 13.0746 16.0397C13.9479 25.0902 18.9098 30.0521 27.9603 30.9254C28.8106 31.0075 29.2357 31.0485 29.6494 30.9053C30.1367 30.7366 30.603 30.3131 30.8177 29.8443C31 29.4462 31 28.9721 31 28.0238C31 27.3755 31 27.0514 30.9122 26.7643C30.8021 26.4045 30.5931 26.0829 30.309 25.8362C30.0823 25.6393 29.7861 25.5077 29.1937 25.2444L28.2878 24.8417C27.6462 24.5566 27.3255 24.4141 26.9995 24.3831C26.6876 24.3534 26.3731 24.3972 26.0811 24.5109C25.776 24.6297 25.5063 24.8544 24.967 25.3038C24.4301 25.7512 24.1617 25.9749 23.8337 26.0947C23.543 26.2009 23.1586 26.2403 22.8523 26.1951C22.5069 26.1442 22.2423 26.0029 21.7133 25.7201C20.0672 24.8405 19.1595 23.9328 18.2799 22.2867C17.9971 21.7577 17.8558 21.4931 17.8049 21.1477C17.7597 20.8414 17.7991 20.457 17.9053 20.1663C18.0251 19.8383 18.2488 19.5699 18.6962 19.033C19.1456 18.4937 19.3703 18.224 19.4891 17.9189C19.6028 17.6269 19.6466 17.3124 19.6169 17.0005C19.5859 16.6745 19.4434 16.3538 19.1583 15.7122Z" stroke="#7F56D9" stroke-width="1.5" stroke-linecap="round"/>
</svg>
