<svg width="20" height="20" viewBox="0 0 20 20" fill="none" xmlns="http://www.w3.org/2000/svg">
<path d="M2.0835 9.99967C2.0835 6.26772 2.0835 4.40175 3.24287 3.24238C4.40223 2.08301 6.26821 2.08301 10.0002 2.08301C13.7321 2.08301 15.5981 2.08301 16.7575 3.24238C17.9168 4.40175 17.9168 6.26772 17.9168 9.99967C17.9168 13.7316 17.9168 15.5976 16.7575 16.757C15.5981 17.9163 13.7321 17.9163 10.0002 17.9163C6.26821 17.9163 4.40223 17.9163 3.24287 16.757C2.0835 15.5976 2.0835 13.7316 2.0835 9.99967Z" stroke="#667085" stroke-width="1.26" stroke-linecap="round" stroke-linejoin="round"/>
<path d="M5.8335 14.1663L9.32812 10.6717M14.1668 5.83301L10.6722 9.32763M10.6722 9.32763L8.14831 5.83301H5.8335L9.32812 10.6717M10.6722 9.32763L14.1668 14.1663H11.852L9.32812 10.6717" stroke="#667085" stroke-width="1.26" stroke-linecap="round" stroke-linejoin="round"/>
</svg>
